<svg width="76" height="46" viewBox="0 0 76 46" fill="none" xmlns="http://www.w3.org/2000/svg">
<path d="M11.25 15.875C11.25 14.7014 10.2986 13.75 9.125 13.75C7.95139 13.75 7 14.7014 7 15.875V28.125C7 29.2986 7.95139 30.25 9.125 30.25C10.2986 30.25 11.25 29.2986 11.25 28.125V15.875Z" fill="white"/>
<path d="M4.375 20C4.375 18.8264 3.4236 17.875 2.25 17.875C1.07639 17.875 0.125 18.8264 0.125 20V24C0.125 25.1736 1.07639 26.125 2.25 26.125C3.4236 26.125 4.375 25.1736 4.375 24V20Z" fill="white"/>
<path d="M68.25 15.875C68.25 14.7014 67.2986 13.75 66.125 13.75C64.9514 13.75 64 14.7014 64 15.875V28.125C64 29.2986 64.9514 30.25 66.125 30.25C67.2986 30.25 68.25 29.2986 68.25 28.125V15.875Z" fill="white"/>
<path d="M61.25 10.375C61.25 9.20139 60.2986 8.25 59.125 8.25C57.9514 8.25 57 9.20139 57 10.375V33.625C57 34.7986 57.9514 35.75 59.125 35.75C60.2986 35.75 61.25 34.7986 61.25 33.625V10.375Z" fill="white"/>
<path d="M40.3125 2.65625C40.3125 1.18924 39.1233 0 37.6562 0C36.1892 0 35 1.18924 35 2.65625V42.7188C35 44.1858 36.1892 45.375 37.6562 45.375C39.1233 45.375 40.3125 44.1858 40.3125 42.7188V2.65625Z" fill="white"/>
<path d="M25.25 15.875C25.25 14.7014 24.2986 13.75 23.125 13.75C21.9514 13.75 21 14.7014 21 15.875V28.125C21 29.2986 21.9514 30.25 23.125 30.25C24.2986 30.25 25.25 29.2986 25.25 28.125V15.875Z" fill="white"/>
<path d="M18.25 11.75C18.25 10.5764 17.2986 9.625 16.125 9.625C14.9514 9.625 14 10.5764 14 11.75V35C14 36.1736 14.9514 37.125 16.125 37.125C17.2986 37.125 18.25 36.1736 18.25 35V11.75Z" fill="white"/>
<path d="M75.25 20C75.25 18.8264 74.2986 17.875 73.125 17.875C71.9514 17.875 71 18.8264 71 20V24C71 25.1736 71.9514 26.125 73.125 26.125C74.2986 26.125 75.25 25.1736 75.25 24V20Z" fill="white"/>
<path d="M54.25 15.875C54.25 14.7014 53.2986 13.75 52.125 13.75C50.9514 13.75 50 14.7014 50 15.875V28.125C50 29.2986 50.9514 30.25 52.125 30.25C53.2986 30.25 54.25 29.2986 54.25 28.125V15.875Z" fill="white"/>
<path d="M47.25 10.375C47.25 9.20139 46.2986 8.25 45.125 8.25C43.9514 8.25 43 9.20139 43 10.375V33.625C43 34.7986 43.9514 35.75 45.125 35.75C46.2986 35.75 47.25 34.7986 47.25 33.625V10.375Z" fill="white"/>
<path d="M32.25 11.75C32.25 10.5764 31.2986 9.625 30.125 9.625C28.9514 9.625 28 10.5764 28 11.75V35C28 36.1736 28.9514 37.125 30.125 37.125C31.2986 37.125 32.25 36.1736 32.25 35V11.75Z" fill="white"/>
</svg>
