<svg width="253" height="155" viewBox="0 0 253 155" fill="none" xmlns="http://www.w3.org/2000/svg">
<path d="M37.4506 53.4919C37.4506 49.5373 34.2835 46.3315 30.3766 46.3315C26.4697 46.3315 23.3026 49.5373 23.3026 53.4919V94.769C23.3026 98.7236 26.4697 101.929 30.3766 101.929C34.2835 101.929 37.4506 98.7236 37.4506 94.769V53.4919Z" fill="#111111"/>
<path d="M14.5642 67.3913C14.5642 63.4368 11.397 60.231 7.49015 60.231C3.58326 60.231 0.416138 63.4368 0.416138 67.3913V80.8695C0.416138 84.8241 3.58326 88.0299 7.49015 88.0299C11.397 88.0299 14.5642 84.8241 14.5642 80.8695V67.3913Z" fill="#111111"/>
<path d="M227.201 53.4919C227.201 49.5373 224.033 46.3315 220.127 46.3315C216.22 46.3315 213.053 49.5373 213.053 53.4919V94.769C213.053 98.7236 216.22 101.929 220.127 101.929C224.033 101.929 227.201 98.7236 227.201 94.769V53.4919Z" fill="#111111"/>
<path d="M203.898 34.9592C203.898 31.0046 200.731 27.7988 196.824 27.7988C192.917 27.7988 189.75 31.0046 189.75 34.9592V113.302C189.75 117.256 192.917 120.462 196.824 120.462C200.731 120.462 203.898 117.256 203.898 113.302V34.9592Z" fill="#111111"/>
<path d="M134.198 8.95041C134.198 4.00722 130.239 0 125.356 0C120.472 0 116.513 4.00722 116.513 8.95041V143.944C116.513 148.887 120.472 152.894 125.356 152.894C130.239 152.894 134.198 148.887 134.198 143.944V8.95041Z" fill="#111111"/>
<path d="M84.0559 53.4919C84.0559 49.5373 80.8888 46.3315 76.9819 46.3315C73.0751 46.3315 69.9079 49.5373 69.9079 53.4919V94.769C69.9079 98.7236 73.0751 101.929 76.9819 101.929C80.8888 101.929 84.0559 98.7236 84.0559 94.769V53.4919Z" fill="#111111"/>
<path d="M60.7533 39.5925C60.7533 35.6379 57.5862 32.4321 53.6793 32.4321C49.7724 32.4321 46.6053 35.6379 46.6053 39.5925V117.935C46.6053 121.889 49.7724 125.095 53.6793 125.095C57.5862 125.095 60.7533 121.889 60.7533 117.935V39.5925Z" fill="#111111"/>
<path d="M250.503 67.3913C250.503 63.4368 247.336 60.231 243.429 60.231C239.522 60.231 236.355 63.4368 236.355 67.3913V80.8695C236.355 84.8241 239.522 88.0299 243.429 88.0299C247.336 88.0299 250.503 84.8241 250.503 80.8695V67.3913Z" fill="#111111"/>
<path d="M180.595 53.4919C180.595 49.5373 177.428 46.3315 173.521 46.3315C169.615 46.3315 166.447 49.5373 166.447 53.4919V94.769C166.447 98.7236 169.615 101.929 173.521 101.929C177.428 101.929 180.595 98.7236 180.595 94.769V53.4919Z" fill="#111111"/>
<path d="M157.293 34.9592C157.293 31.0046 154.126 27.7988 150.219 27.7988C146.312 27.7988 143.145 31.0046 143.145 34.9592V113.302C143.145 117.256 146.312 120.462 150.219 120.462C154.126 120.462 157.293 117.256 157.293 113.302V34.9592Z" fill="#111111"/>
<path d="M107.359 36.2228C107.359 32.2683 104.191 29.0625 100.285 29.0625C96.3777 29.0625 93.2105 32.2683 93.2105 36.2228V114.565C93.2105 118.52 96.3777 121.726 100.285 121.726C104.191 121.726 107.359 118.52 107.359 114.565V36.2228Z" fill="#111111"/>
</svg>
