<svg width="376" height="179" viewBox="0 0 376 179" fill="none" xmlns="http://www.w3.org/2000/svg">
<path d="M55.6579 61.7744C55.6579 57.2076 50.951 53.5054 45.1447 53.5054C39.3385 53.5054 34.6316 57.2076 34.6316 61.7744V109.443C34.6316 114.01 39.3385 117.712 45.1447 117.712C50.951 117.712 55.6579 114.01 55.6579 109.443V61.7744Z" fill="#111111"/>
<path d="M21.6447 77.8262C21.6447 73.2593 16.9378 69.5571 11.1316 69.5571C5.32529 69.5571 0.618408 73.2593 0.618408 77.8262V93.3914C0.618408 97.9582 5.32529 101.66 11.1316 101.66C16.9378 101.66 21.6447 97.9582 21.6447 93.3914V77.8262Z" fill="#111111"/>
<path d="M337.658 61.7744C337.658 57.2076 332.951 53.5054 327.145 53.5054C321.339 53.5054 316.632 57.2076 316.632 61.7744V109.443C316.632 114.01 321.339 117.712 327.145 117.712C332.951 117.712 337.658 114.01 337.658 109.443V61.7744Z" fill="#111111"/>
<path d="M303.026 40.3723C303.026 35.8054 298.319 32.1033 292.513 32.1033C286.707 32.1033 282 35.8054 282 40.3723V130.845C282 135.412 286.707 139.114 292.513 139.114C298.319 139.114 303.026 135.412 303.026 130.845V40.3723Z" fill="#111111"/>
<path d="M199.441 10.3363C199.441 4.62769 193.557 0 186.299 0C179.041 0 173.158 4.62769 173.158 10.3363V166.232C173.158 171.94 179.041 176.568 186.299 176.568C193.557 176.568 199.441 171.94 199.441 166.232V10.3363Z" fill="#111111"/>
<path d="M124.921 61.7744C124.921 57.2076 120.214 53.5054 114.408 53.5054C108.602 53.5054 103.895 57.2076 103.895 61.7744V109.443C103.895 114.01 108.602 117.712 114.408 117.712C120.214 117.712 124.921 114.01 124.921 109.443V61.7744Z" fill="#111111"/>
<path d="M90.2895 45.7229C90.2895 41.156 85.5826 37.4539 79.7763 37.4539C73.9701 37.4539 69.2632 41.156 69.2632 45.7229V136.196C69.2632 140.763 73.9701 144.465 79.7763 144.465C85.5826 144.465 90.2895 140.763 90.2895 136.196V45.7229Z" fill="#111111"/>
<path d="M372.289 77.8262C372.289 73.2593 367.583 69.5571 361.776 69.5571C355.97 69.5571 351.263 73.2593 351.263 77.8262V93.3914C351.263 97.9582 355.97 101.66 361.776 101.66C367.583 101.66 372.289 97.9582 372.289 93.3914V77.8262Z" fill="#111111"/>
<path d="M268.395 61.7744C268.395 57.2076 263.688 53.5054 257.882 53.5054C252.075 53.5054 247.368 57.2076 247.368 61.7744V109.443C247.368 114.01 252.075 117.712 257.882 117.712C263.688 117.712 268.395 114.01 268.395 109.443V61.7744Z" fill="#111111"/>
<path d="M233.763 40.3723C233.763 35.8054 229.056 32.1033 223.25 32.1033C217.444 32.1033 212.737 35.8054 212.737 40.3723V130.845C212.737 135.412 217.444 139.114 223.25 139.114C229.056 139.114 233.763 135.412 233.763 130.845V40.3723Z" fill="#111111"/>
<path d="M159.553 41.8315C159.553 37.2647 154.846 33.5625 149.039 33.5625C143.233 33.5625 138.526 37.2647 138.526 41.8315V132.304C138.526 136.871 143.233 140.573 149.039 140.573C154.846 140.573 159.553 136.871 159.553 132.304V41.8315Z" fill="#111111"/>
</svg>
